<svg width="5940" height="4968" xmlns="http://www.w3.org/2000/svg" xmlns:xlink="http://www.w3.org/1999/xlink" xml:space="preserve" overflow="hidden"><defs><clipPath id="clip0"><path d="M2635.89-2415.04 7733.67-1310.41 6898.18 2545.37 1800.39 1440.74 2635.89-2415.04Z" fill-rule="evenodd" clip-rule="evenodd"/></clipPath><clipPath id="clip1"><path d="M1800.39 1440.74 6898.18 2545.37 7733.67-1310.41 2635.89-2415.04Z" fill-rule="evenodd" clip-rule="evenodd"/></clipPath><clipPath id="clip2"><path d="M1800.39 1440.74 6898.18 2545.37 7733.67-1310.41 2635.89-2415.04Z" fill-rule="evenodd" clip-rule="evenodd"/></clipPath><linearGradient x1="592.83" y1="936.87" x2="5221.59" y2="3316.97" gradientUnits="userSpaceOnUse" spreadMethod="pad" id="fill3"><stop offset="0" stop-color="#C939E6" stop-opacity="1"/><stop offset="0.002" stop-color="#C939E6" stop-opacity="1"/><stop offset="0.973" stop-color="#4AD8CE" stop-opacity="1"/><stop offset="1" stop-color="#4AD8CE" stop-opacity="1"/></linearGradient></defs><g transform="translate(-1796 2420)"><g><g clip-path="url(#clip0)"><g clip-path="url(#clip1)"><g clip-path="url(#clip2)"><path d="M5204.83 0 5204.83 3940.37 0 3940.37 0 1794.21C359.342 1189.2 1019.52 781.349 1770.48 781.349 1972.11 781.349 2167.08 810.705 2351.54 865.459 2974.14 1050.13 3686.69 962.165 4145.86 502.995 4405.16 243.69 4781.57 0 5204.83 0Z" fill="url(#fill3)" fill-rule="nonzero" transform="matrix(0.979433 0.21223 0.211772 -0.977319 1800.94 1438.2)"/></g></g></g></g></g></svg>